<svg width="21" height="16" viewBox="0 0 21 16" fill="none" xmlns="http://www.w3.org/2000/svg">
<path d="M10.57 0.46999H10.71C12.0633 0.516657 13.3467 0.563324 14.56 0.60999C16.7067 0.656657 18.0833 0.773323 18.69 0.959991C19.1567 1.05332 19.5533 1.27499 19.88 1.62499C20.2067 1.97499 20.4283 2.37166 20.545 2.81499C20.6617 3.25832 20.7667 3.87666 20.86 4.66999L20.93 5.22999C20.9767 6.11666 21 6.97999 21 7.81999V7.95999C21 8.84666 20.9533 9.73332 20.86 10.62V10.9C20.7667 11.7867 20.6617 12.4633 20.545 12.93C20.4283 13.3967 20.2067 13.7933 19.88 14.12C19.5533 14.4467 19.1567 14.68 18.69 14.82C18.0367 15.0067 16.59 15.1233 14.35 15.17C13.09 15.2167 11.83 15.24 10.57 15.24H10.43C9.17 15.24 7.88667 15.2167 6.58 15.17H5.81C4.03667 15.0767 2.89333 14.96 2.38 14.82C1.86667 14.68 1.44667 14.4467 1.12 14.12C0.793333 13.7933 0.56 13.3967 0.42 12.93C0.28 12.4633 0.186667 11.7867 0.14 10.9V10.62C0.0466667 9.73332 0 8.84666 0 7.95999V7.81999C0 6.97999 0.0233333 6.18666 0.07 5.43999L0.14 4.66999C0.233333 3.87666 0.338333 3.25832 0.455 2.81499C0.571667 2.37166 0.793333 1.97499 1.12 1.62499C1.44667 1.27499 1.84333 1.05332 2.31 0.959991C2.87 0.81999 4.03667 0.703323 5.81 0.60999L6.58 0.53999C7.84 0.53999 9.07667 0.516657 10.29 0.46999H10.57ZM8.4 4.73999V11.04L13.86 7.88999L8.4 4.73999Z" fill="white"/>
</svg>
