<svg width="21" height="22" viewBox="0 0 21 22" fill="none" xmlns="http://www.w3.org/2000/svg">
<g clip-path="url(#clip0_954_876)">
<path d="M21 11.2C21 9.28667 20.5333 7.525 19.6 5.915C18.6667 4.305 17.395 3.02167 15.785 2.065C14.175 1.10834 12.4133 0.630005 10.5 0.630005C8.58667 0.630005 6.825 1.10834 5.215 2.065C3.605 3.02167 2.33333 4.305 1.4 5.915C0.466667 7.525 0 9.28667 0 11.2C0 12.9267 0.385 14.5367 1.155 16.03C1.925 17.5233 2.98667 18.76 4.34 19.74C5.69333 20.72 7.21 21.35 8.89 21.63V14.28H6.16V11.2H8.89V8.89001C8.89 7.58334 9.24 6.56834 9.94 5.84501C10.64 5.12167 11.5967 4.76 12.81 4.76C13.2767 4.76 13.8133 4.78334 14.42 4.83001L15.19 4.97001V7.56001H13.86C13.2533 7.56001 12.81 7.71167 12.53 8.01501C12.25 8.31834 12.11 8.72667 12.11 9.24V11.2H15.05L14.56 14.28H12.11V21.63C13.79 21.35 15.3067 20.72 16.66 19.74C18.0133 18.76 19.075 17.5233 19.845 16.03C20.615 14.5367 21 12.9267 21 11.2Z" fill="white"/>
</g>
<defs>
<clipPath id="clip0_954_876">
<rect width="21" height="21" fill="white" transform="matrix(1 0 0 -1 0 21.63)"/>
</clipPath>
</defs>
</svg>
