<svg xmlns="http://www.w3.org/2000/svg" width="26" height="30" viewBox="0 0 27 31"><title>svg ig</title><g fill="#ffffff" class="nc-icon-wrapper"><path d="M13.45 8.46c-3.82 0-6.89 3.08-6.9 6.89s3.08 6.89 6.9 6.9 6.89-3.08 6.89-6.9-3.08-6.89-6.89-6.89z m0 11.38c-2.47 0-4.48-2.01-4.49-4.49s2.01-4.48 4.49-4.48 4.48 2.01 4.48 4.48-2.02 4.48-4.48 4.49z m8.78-11.66c0 0.89-0.72 1.61-1.61 1.61-0.89 0-1.61-0.72-1.61-1.61s0.72-1.61 1.61-1.61 1.61 0.72 1.61 1.61z m4.57 1.63c-0.1-2.15-0.59-4.06-2.18-5.63-1.57-1.57-3.48-2.06-5.63-2.18-2.22-0.13-8.87-0.13-11.09 0-2.15 0.1-4.06 0.59-5.64 2.17s-2.06 3.48-2.17 5.63c-0.13 2.22-0.13 8.87 0 11.1 0.1 2.15 0.59 4.06 2.17 5.63s3.48 2.06 5.64 2.17c2.22 0.13 8.87 0.13 11.09 0 2.15-0.1 4.06-0.59 5.63-2.17 1.57-1.57 2.06-3.48 2.18-5.63 0.13-2.22 0.13-8.87 0-11.09z m-2.87 13.47c-0.47 1.18-1.37 2.08-2.56 2.56-1.77 0.7-5.97 0.54-7.92 0.54s-6.16 0.16-7.93-0.54c-1.18-0.47-2.08-1.37-2.56-2.56-0.7-1.77-0.54-5.97-0.54-7.93s-0.16-6.16 0.54-7.92c0.47-1.18 1.37-2.08 2.56-2.56 1.77-0.7 5.97-0.54 7.93-0.54s6.16-0.16 7.92 0.54c1.18 0.47 2.08 1.37 2.56 2.56 0.7 1.77 0.54 5.97 0.54 7.92s0.16 6.16-0.54 7.93z" fill="#ffffff"></path></g></svg>