<svg xmlns="http://www.w3.org/2000/svg" width="26" height="30" viewBox="0 0 27 31"><title>svg li</title><g fill="#ffffff" class="nc-icon-wrapper"><path d="M24.96 1.92h-23.05c-1.06 0-1.91 0.87-1.91 1.94v23c0 1.07 0.86 1.94 1.91 1.94h23.05c1.06 0 1.92-0.87 1.92-1.94v-23c0-1.07-0.86-1.94-1.92-1.94z m-16.84 23.04h-3.98v-12.83h3.99v12.83z m-1.99-14.58c-1.28 0-2.31-1.04-2.31-2.31s1.03-2.31 2.31-2.31c1.27 0 2.31 1.04 2.31 2.31 0 1.28-1.03 2.31-2.31 2.31z m16.93 14.58h-3.99v-6.24c0-1.49-0.03-3.4-2.07-3.4-2.08 0-2.39 1.62-2.39 3.29v6.35h-3.98v-12.83h3.82v1.75h0.05c0.53-1.01 1.84-2.07 3.78-2.07 4.03 0 4.78 2.66 4.78 6.12v7.03z" fill="#ffffff"></path></g></svg>