<?xml version="1.0" encoding="utf-8"?>
<!-- Generator: Adobe Illustrator 26.4.1, SVG Export Plug-In . SVG Version: 6.00 Build 0)  -->
<svg version="1.1" id="Layer_1" xmlns="http://www.w3.org/2000/svg" xmlns:xlink="http://www.w3.org/1999/xlink" x="0px" y="0px"
	 viewBox="0 0 489 99" style="enable-background:new 0 0 489 99;" xml:space="preserve">
<style type="text/css">
	.st0{fill:#1B365D;}
	.st1{fill:#FFFFFF;}
	.st2{fill:#134663;}
	.st3{fill:#963E22;}
	.st4{fill:#0B783D;}
</style>
<path class="st0" d="M-0.97-0.07h90.81c0,0,47.99,4.64,47.99,48.66c0,50.21-47.99,50.21-47.99,50.21H-0.97V-0.07z"/>
<g>
	<path class="st1" d="M46.76,47.81h-3.8V27.54h3.8v-5.07H29.02v5.07h3.8v20.27l5.07,5.07h8.87V47.81z"/>
	<path class="st1" d="M59.43,52.88h8.86l5.07-5.07V27.54h3.8v-5.07H59.43v5.07h3.8v20.27h-3.8L59.43,52.88z"/>
	<path class="st1" d="M77.48,57.63l11.08-11.08h5.07v-5.07H74.62v5.07h1.9l-7.6,7.6H58.16v-7.6h3.8v-5.07H44.22v5.07h3.8v22.8h-3.8
		v5.07h17.74v-5.07h-3.8v-7.6h10.77l7.6,7.6h-1.9v5.07h19.01v-5.07H89.2L77.48,57.63z"/>
	<path class="st1" d="M94.9,75.68H73.36v-7.6L68.3,63h-8.87v5.07h3.8v7.6H42.95v-7.6h3.8V54.14h-9.51l-5.7-5.71V28.8h-3.8v-7.6
		h20.27v7.6h-3.8v11.4h17.74V28.8h-3.8v-7.6h20.27v7.6h-3.8v11.4H94.9v7.6h-5.7l-9.82,9.82l10.46,10.46h5.07v7.59L94.9,75.68z
		 M90.47,66.81l-9.19-9.18l8.55-8.55h6.34V38.94H75.89v-8.87h3.8V19.93h-22.8v10.14h3.8v8.87h-15.2v-8.87h3.8V19.93H26.48v10.14h3.8
		v19.01l6.34,6.34h8.87v11.4h-3.8v10.14h22.81V66.81h-3.8v-2.53h6.96l4.43,4.44v8.23h24.07V66.81H90.47z"/>
	<path class="st1" d="M97.76,75.44c0-0.21,0.04-0.41,0.12-0.6c0.08-0.18,0.18-0.34,0.33-0.48c0.13-0.13,0.29-0.23,0.48-0.32
		c0.18-0.08,0.38-0.12,0.58-0.12s0.39,0.04,0.58,0.12s0.34,0.18,0.48,0.32s0.24,0.29,0.33,0.48c0.08,0.18,0.12,0.39,0.12,0.6
		c0,0.22-0.04,0.41-0.12,0.6c-0.08,0.18-0.18,0.34-0.33,0.48c-0.13,0.13-0.29,0.23-0.48,0.32c-0.18,0.08-0.38,0.12-0.58,0.12
		s-0.39-0.04-0.58-0.12c-0.18-0.08-0.34-0.18-0.48-0.32s-0.24-0.29-0.33-0.48C97.79,75.86,97.76,75.66,97.76,75.44z M98.02,75.44
		c0,0.18,0.03,0.35,0.1,0.51c0.07,0.16,0.15,0.29,0.26,0.4c0.11,0.12,0.24,0.2,0.39,0.27c0.15,0.07,0.31,0.1,0.49,0.1
		s0.34-0.03,0.49-0.1c0.15-0.07,0.28-0.16,0.39-0.27c0.11-0.12,0.2-0.25,0.27-0.4c0.07-0.16,0.1-0.33,0.1-0.51
		c0-0.18-0.03-0.35-0.1-0.5c-0.07-0.16-0.15-0.29-0.27-0.41c-0.11-0.12-0.24-0.2-0.39-0.27c-0.16-0.07-0.32-0.1-0.49-0.1
		c-0.18,0-0.34,0.03-0.49,0.1c-0.15,0.07-0.29,0.16-0.39,0.27c-0.11,0.12-0.2,0.25-0.26,0.41C98.05,75.1,98.02,75.26,98.02,75.44z
		 M98.68,74.56h0.66c0.41,0,0.61,0.17,0.61,0.5c0,0.16-0.04,0.28-0.13,0.35c-0.09,0.08-0.2,0.12-0.33,0.13l0.5,0.77h-0.29
		l-0.48-0.76h-0.29v0.76h-0.27L98.68,74.56z M98.95,75.35h0.28c0.06,0,0.12,0,0.18-0.01c0.06,0,0.11-0.02,0.15-0.03
		c0.04-0.02,0.08-0.05,0.11-0.09c0.03-0.04,0.04-0.09,0.04-0.17c0-0.06-0.01-0.11-0.03-0.14c-0.03-0.03-0.06-0.07-0.09-0.08
		c-0.03-0.02-0.08-0.03-0.13-0.03c-0.04-0.01-0.09-0.01-0.13-0.01h-0.35v0.57H98.95z"/>
	<path class="st1" d="M97.76,75.44c0-0.21,0.04-0.41,0.12-0.6c0.08-0.18,0.18-0.34,0.33-0.48c0.13-0.13,0.29-0.23,0.48-0.32
		c0.18-0.08,0.38-0.12,0.58-0.12s0.39,0.04,0.58,0.12s0.34,0.18,0.48,0.32s0.24,0.29,0.33,0.48c0.08,0.18,0.12,0.39,0.12,0.6
		c0,0.22-0.04,0.41-0.12,0.6c-0.08,0.18-0.18,0.34-0.33,0.48c-0.13,0.13-0.29,0.23-0.48,0.32c-0.18,0.08-0.38,0.12-0.58,0.12
		s-0.39-0.04-0.58-0.12c-0.18-0.08-0.34-0.18-0.48-0.32s-0.24-0.29-0.33-0.48C97.79,75.86,97.76,75.66,97.76,75.44z M98.02,75.44
		c0,0.18,0.03,0.35,0.1,0.51c0.07,0.16,0.15,0.29,0.26,0.4c0.11,0.12,0.24,0.2,0.39,0.27c0.15,0.07,0.31,0.1,0.49,0.1
		s0.34-0.03,0.49-0.1c0.15-0.07,0.28-0.16,0.39-0.27c0.11-0.12,0.2-0.25,0.27-0.4c0.07-0.16,0.1-0.33,0.1-0.51
		c0-0.18-0.03-0.35-0.1-0.5c-0.07-0.16-0.15-0.29-0.27-0.41c-0.11-0.12-0.24-0.2-0.39-0.27c-0.16-0.07-0.32-0.1-0.49-0.1
		c-0.18,0-0.34,0.03-0.49,0.1c-0.15,0.07-0.29,0.16-0.39,0.27c-0.11,0.12-0.2,0.25-0.26,0.41C98.05,75.1,98.02,75.26,98.02,75.44z
		 M98.68,74.56h0.66c0.41,0,0.61,0.17,0.61,0.5c0,0.16-0.04,0.28-0.13,0.35c-0.09,0.08-0.2,0.12-0.33,0.13l0.5,0.77h-0.29
		l-0.48-0.76h-0.29v0.76h-0.27L98.68,74.56z M98.95,75.35h0.28c0.06,0,0.12,0,0.18-0.01c0.06,0,0.11-0.02,0.15-0.03
		c0.04-0.02,0.08-0.05,0.11-0.09c0.03-0.04,0.04-0.09,0.04-0.17c0-0.06-0.01-0.11-0.03-0.14c-0.03-0.03-0.06-0.07-0.09-0.08
		c-0.03-0.02-0.08-0.03-0.13-0.03c-0.04-0.01-0.09-0.01-0.13-0.01h-0.35v0.57H98.95z"/>
</g>
<g>
	<path class="st2" d="M153.64,70.62V26.8h8.75v43.82H153.64z M176.56,70.62l-13.87-23.24l13.28-20.58h10.53l-14.61,20.45
		l15.72,23.37H176.56z"/>
	<path class="st2" d="M221.73,67.33c-2.13,1.31-4.41,2.31-6.86,3.01c-2.45,0.7-5.15,1.05-8.12,1.05c-2.67,0-5.18-0.41-7.53-1.23
		c-2.35-0.82-4.46-2.18-6.34-4.08c-1.73-1.77-3.12-3.99-4.15-6.65c-1.04-2.66-1.56-6.06-1.56-10.2c0-2.74,0.35-5.49,1.04-8.23
		c0.69-2.74,1.82-5.21,3.38-7.41c1.56-2.19,3.62-3.98,6.19-5.35c2.57-1.37,5.71-2.06,9.42-2.06c2.67,0,5.28,0.45,7.82,1.36
		c2.55,0.91,4.76,2.18,6.64,3.83l-4.82,4.94c-2.97-2.41-6.11-3.61-9.42-3.61c-2.42,0-4.34,0.57-5.75,1.71
		c-1.41,1.14-2.47,2.54-3.19,4.21c-0.72,1.67-1.17,3.45-1.37,5.35c-0.2,1.9-0.3,3.61-0.3,5.13s0.1,3.2,0.3,5.03
		c0.2,1.84,0.67,3.55,1.41,5.13c0.74,1.58,1.82,2.91,3.23,3.99c1.41,1.08,3.32,1.62,5.75,1.62c1.04,0,2.08-0.13,3.12-0.38
		c1.04-0.25,1.9-0.55,2.6-0.89V53.14h-7.05l-1.26-6.46h16.84V67.33z"/>
	<path class="st2" d="M259.71,57.76c0,2.2-0.47,4.14-1.41,5.83c-0.94,1.69-2.23,3.11-3.86,4.27c-1.63,1.16-3.54,2.04-5.71,2.63
		c-2.18,0.59-4.5,0.89-6.97,0.89c-3.07,0-5.87-0.35-8.42-1.05c-2.55-0.7-4.93-1.7-7.16-3.01l3.86-5.95
		c1.73,1.14,3.53,2.03,5.41,2.66c1.88,0.63,3.96,0.95,6.23,0.95c2.47,0,4.49-0.51,6.05-1.52c1.56-1.01,2.34-2.51,2.34-4.5
		c0-1.39-0.43-2.52-1.3-3.39c-0.87-0.86-2.07-1.61-3.6-2.25l-8.38-3.42c-1.14-0.46-2.21-1.01-3.23-1.65
		c-1.01-0.63-1.93-1.39-2.74-2.28c-0.82-0.89-1.46-1.91-1.93-3.07c-0.47-1.16-0.7-2.52-0.7-4.08c0-1.86,0.39-3.58,1.19-5.16
		c0.79-1.58,1.89-2.94,3.3-4.08c1.41-1.14,3.08-2.03,5.01-2.66c1.93-0.63,4.05-0.95,6.38-0.95c2.82,0,5.45,0.36,7.9,1.08
		c2.45,0.72,4.71,1.71,6.79,2.98l-4.08,5.45c-1.78-1.05-3.44-1.86-4.97-2.41c-1.53-0.55-3.19-0.82-4.97-0.82
		c-2.08,0-3.77,0.44-5.08,1.33c-1.31,0.89-1.97,2.13-1.97,3.74c0,1.27,0.32,2.31,0.96,3.13c0.64,0.82,1.61,1.49,2.89,1.99l9.72,3.99
		c2.47,1.01,4.5,2.43,6.08,4.24C258.92,52.49,259.71,54.85,259.71,57.76z"/>
</g>
<path class="st2" d="M292.62,43.51l-5.58-9.61v9.61h-3.78V25.12h3.78v8.39l5.24-8.39h4.55l-5.87,8.52l6.54,9.87H292.62z"/>
<path class="st2" d="M301.59,37.84v0.11c0,1.06,0.25,1.87,0.74,2.43c0.49,0.56,1.2,0.85,2.12,0.85c1.2,0,2.35-0.45,3.44-1.35
	l1.38,2.12c-1.53,1.25-3.24,1.88-5.11,1.88c-0.97,0-1.85-0.17-2.65-0.5c-0.79-0.34-1.47-0.81-2.02-1.42
	c-0.56-0.61-0.98-1.34-1.28-2.21c-0.3-0.86-0.45-1.83-0.45-2.88c0-1.22,0.13-2.25,0.4-3.1s0.7-1.6,1.3-2.28
	c0.56-0.62,1.19-1.08,1.88-1.38c0.69-0.3,1.48-0.45,2.38-0.45c0.79,0,1.53,0.12,2.22,0.37c0.69,0.25,1.25,0.6,1.69,1.06
	c0.62,0.63,1.07,1.42,1.36,2.37c0.29,0.94,0.44,2.13,0.44,3.56v0.82H301.59z M305.75,35.09c0-0.51-0.03-0.92-0.09-1.22
	c-0.06-0.3-0.17-0.57-0.33-0.82c-0.35-0.53-0.87-0.79-1.56-0.79c-0.67,0-1.19,0.25-1.56,0.75c-0.37,0.5-0.56,1.23-0.56,2.18v0.05
	h4.1V35.09z"/>
<path class="st2" d="M319.4,43.51v-8.81c0-0.78-0.08-1.3-0.25-1.57s-0.48-0.41-0.94-0.41c-0.35,0-0.75,0.11-1.19,0.33
	c-0.44,0.22-0.86,0.52-1.27,0.89v9.58h-3.55v-9.82c0-0.58-0.04-1.14-0.12-1.68c-0.08-0.54-0.2-1.04-0.36-1.49l3.15-0.9
	c0.34,0.58,0.5,1.15,0.5,1.69c0.26-0.19,0.52-0.37,0.75-0.53c0.24-0.16,0.51-0.32,0.81-0.48c0.35-0.19,0.75-0.34,1.18-0.44
	c0.43-0.1,0.85-0.15,1.26-0.15c0.76,0,1.44,0.18,2.04,0.54c0.6,0.36,1.01,0.83,1.22,1.42c0.18,0.48,0.26,1.12,0.26,1.93v9.9H319.4z"
	/>
<path class="st2" d="M333.64,43.21c-0.99,0.41-1.95,0.61-2.88,0.61c-0.9,0-1.68-0.18-2.34-0.54c-0.66-0.36-1.1-0.84-1.31-1.44
	c-0.05-0.14-0.1-0.27-0.13-0.4c-0.04-0.12-0.06-0.26-0.07-0.4c-0.01-0.14-0.02-0.31-0.03-0.52c-0.01-0.2-0.01-0.46-0.01-0.78v-7.36
	h-1.35v-2.43h1.35c0-0.67,0-1.24,0.01-1.72c0.01-0.48,0.05-0.97,0.12-1.48l3.6-0.9c-0.07,0.62-0.12,1.28-0.16,2
	c-0.04,0.71-0.05,1.42-0.05,2.1h3.18l-0.9,2.43h-2.28v6.8c0,0.86,0.1,1.44,0.3,1.73c0.2,0.29,0.61,0.44,1.23,0.44
	c0.16,0,0.33-0.02,0.52-0.07c0.19-0.04,0.44-0.11,0.75-0.2L333.64,43.21z"/>
<path class="st2" d="M344.67,43.88c-0.48-0.34-0.83-0.78-1.06-1.32c-0.44,0.42-0.97,0.75-1.57,0.97c-0.61,0.22-1.27,0.33-2,0.33
	c-0.95,0-1.8-0.2-2.54-0.61c-0.74-0.41-1.23-0.93-1.46-1.59c-0.11-0.3-0.18-0.65-0.23-1.06c-0.04-0.41-0.07-0.95-0.07-1.64v-8.68
	l3.49-0.66v8.71c0,0.62,0.03,1.09,0.08,1.43c0.05,0.34,0.12,0.6,0.21,0.79c0.09,0.19,0.25,0.35,0.49,0.46
	c0.24,0.11,0.49,0.17,0.75,0.17c0.44,0,0.88-0.13,1.32-0.4c0.44-0.26,0.73-0.56,0.87-0.9v-9.53l3.39-0.71v10.35
	c0,0.46,0.07,0.9,0.21,1.34c0.14,0.43,0.34,0.81,0.61,1.12L344.67,43.88z"/>
<path class="st2" d="M359.99,41.97c-0.26,0.26-0.48,0.46-0.63,0.6c-0.16,0.13-0.36,0.27-0.61,0.41c-0.48,0.28-0.98,0.49-1.52,0.64
	c-0.54,0.14-1.13,0.21-1.79,0.21c-1.87,0-3.32-0.61-4.35-1.84c-1.03-1.23-1.55-2.94-1.55-5.15c0-1.57,0.26-2.87,0.79-3.9
	c0.53-1.03,1.19-1.82,1.98-2.37c0.46-0.3,0.99-0.54,1.6-0.73c0.61-0.19,1.19-0.28,1.76-0.28c0.46,0,0.92,0.05,1.38,0.16
	c0.46,0.11,0.87,0.26,1.24,0.45c0.25,0.14,0.45,0.27,0.62,0.4c0.17,0.12,0.4,0.31,0.7,0.56l-1.72,2.33
	c-0.35-0.34-0.71-0.6-1.08-0.78c-0.37-0.19-0.72-0.28-1.06-0.28c-0.79,0-1.38,0.36-1.75,1.07c-0.37,0.71-0.56,1.87-0.56,3.48
	c0,0.9,0.06,1.62,0.17,2.16c0.11,0.54,0.29,0.96,0.52,1.26c0.41,0.51,0.93,0.77,1.59,0.77c0.78,0,1.59-0.37,2.43-1.11l0.21-0.19
	L359.99,41.97z"/>
<path class="st2" d="M362.51,43.51V28.24c0-0.6-0.01-1.16-0.04-1.68c-0.03-0.52-0.09-1.13-0.2-1.84l3.57-0.87
	c0.09,0.51,0.15,1.15,0.17,1.91c0.03,0.76,0.04,1.59,0.04,2.49v15.27H362.51z M370.68,43.51l-4.55-7.67l3.47-5.87h4.26l-4.31,5.66
	l5.32,7.89H370.68z"/>
<path class="st2" d="M382.7,43.72c-0.23,0.65-0.45,1.22-0.66,1.71c-0.21,0.49-0.42,0.9-0.62,1.24c-0.2,0.34-0.41,0.64-0.62,0.89
	c-0.21,0.25-0.44,0.46-0.69,0.64c-0.46,0.34-0.97,0.6-1.52,0.81c-0.55,0.2-1.14,0.35-1.76,0.44l-1.22-2.33
	c0.39-0.11,0.78-0.23,1.19-0.38c0.4-0.15,0.74-0.32,1.01-0.52c0.37-0.26,0.71-0.63,1.01-1.11c0.09-0.14,0.16-0.26,0.23-0.37
	c0.06-0.11,0.12-0.22,0.17-0.33c0.05-0.11,0.11-0.24,0.16-0.38c0.05-0.14,0.12-0.31,0.21-0.5h-0.9l-4.47-13.34l3.63-0.42l2.35,7.91
	l0.71,2.8c0-0.02,0.01-0.11,0.04-0.28c0.03-0.17,0.06-0.36,0.11-0.58c0.04-0.22,0.09-0.45,0.15-0.7c0.05-0.25,0.1-0.45,0.13-0.61
	c0.05-0.23,0.13-0.52,0.23-0.87c0.1-0.35,0.2-0.69,0.3-1.01l2.04-6.46h3.73L382.7,43.72z"/>
<path class="st3" d="M296.8,70.42c-0.95,0.56-1.94,0.98-2.95,1.24c-1.01,0.26-2.07,0.4-3.16,0.4c-1.38,0-2.58-0.23-3.61-0.69
	s-1.92-1.16-2.66-2.12c-0.67-0.86-1.16-1.81-1.48-2.83c-0.32-1.02-0.48-2.22-0.48-3.6c0-3.86,1.28-6.65,3.84-8.36
	c0.67-0.46,1.36-0.79,2.08-0.99c0.71-0.2,1.51-0.3,2.39-0.3c1.11,0,2.16,0.18,3.15,0.53c0.99,0.35,1.89,0.88,2.7,1.59l-1.96,2.3
	c-1.16-0.95-2.44-1.43-3.84-1.43c-1.11,0-1.99,0.31-2.65,0.93c-0.62,0.6-1.03,1.39-1.24,2.38c-0.21,0.99-0.32,2.17-0.32,3.55
	c0,2.58,0.46,4.32,1.38,5.24c0.72,0.69,1.68,1.03,2.88,1.03c0.81,0,1.51-0.15,2.09-0.45v-4.18h-2.8l-0.48-3.02h7.12V70.42z"/>
<path class="st3" d="M303.55,66.19v0.11c0,1.06,0.25,1.87,0.74,2.43c0.49,0.56,1.2,0.85,2.12,0.85c1.2,0,2.35-0.45,3.44-1.35
	l1.38,2.12c-1.53,1.25-3.24,1.88-5.11,1.88c-0.97,0-1.85-0.17-2.65-0.5c-0.79-0.34-1.47-0.81-2.02-1.42
	c-0.56-0.61-0.98-1.34-1.28-2.21c-0.3-0.86-0.45-1.83-0.45-2.88c0-1.22,0.13-2.25,0.4-3.1c0.26-0.85,0.7-1.6,1.3-2.28
	c0.56-0.62,1.19-1.08,1.88-1.38c0.69-0.3,1.48-0.45,2.38-0.45c0.79,0,1.53,0.12,2.22,0.37c0.69,0.25,1.25,0.6,1.69,1.06
	c0.62,0.63,1.07,1.42,1.36,2.37c0.29,0.94,0.44,2.13,0.44,3.56v0.82H303.55z M307.7,63.43c0-0.51-0.03-0.92-0.09-1.22
	c-0.06-0.3-0.17-0.57-0.33-0.82c-0.35-0.53-0.87-0.79-1.56-0.79c-0.67,0-1.19,0.25-1.56,0.75c-0.37,0.5-0.56,1.23-0.56,2.18v0.05
	h4.1V63.43z"/>
<path class="st3" d="M325.49,65.02c0,1.16-0.14,2.16-0.41,2.99c-0.27,0.83-0.7,1.58-1.28,2.25c-0.51,0.58-1.12,1.04-1.83,1.38
	c-0.71,0.34-1.59,0.5-2.65,0.5c-0.92,0-1.75-0.17-2.5-0.5c-0.75-0.33-1.39-0.81-1.92-1.42c-0.53-0.61-0.94-1.34-1.23-2.21
	c-0.29-0.86-0.44-1.83-0.44-2.88c0-1.06,0.15-2.02,0.44-2.9c0.29-0.87,0.7-1.62,1.23-2.25c0.53-0.63,1.17-1.11,1.92-1.44
	c0.75-0.33,1.58-0.5,2.5-0.5c1.92,0,3.46,0.68,4.6,2.04c0.55,0.64,0.94,1.34,1.19,2.12C325.36,62.97,325.49,63.91,325.49,65.02z
	 M321.62,65c0-1.8-0.24-3.01-0.71-3.63c-0.37-0.48-0.88-0.71-1.53-0.71c-0.42,0-0.8,0.12-1.12,0.37c-0.33,0.25-0.56,0.58-0.7,1.01
	c-0.12,0.35-0.22,0.78-0.28,1.27c-0.06,0.49-0.09,1.08-0.09,1.75c0,1.57,0.15,2.71,0.45,3.41c0.16,0.37,0.41,0.65,0.75,0.83
	c0.34,0.19,0.69,0.28,1.05,0.28c0.78,0,1.34-0.36,1.68-1.09C321.45,67.76,321.62,66.6,321.62,65z"/>
<path class="st3" d="M333.98,71.8c-0.63,0.25-1.34,0.37-2.12,0.37c-0.76,0-1.42-0.17-1.98-0.5s-0.95-0.78-1.16-1.35
	c-0.07-0.18-0.12-0.34-0.16-0.5c-0.04-0.16-0.07-0.34-0.09-0.56c-0.03-0.21-0.04-0.48-0.05-0.79c-0.01-0.32-0.01-0.71-0.01-1.19
	V57.16c0-0.9-0.01-1.65-0.04-2.25s-0.07-1.21-0.15-1.83l3.62-0.82c0.07,0.37,0.12,0.81,0.15,1.32c0.03,0.51,0.04,1.24,0.04,2.2
	v10.56c0,0.58,0,1.05,0.01,1.4c0.01,0.35,0.02,0.64,0.03,0.85c0.01,0.21,0.03,0.37,0.07,0.48c0.03,0.11,0.08,0.2,0.13,0.29
	c0.14,0.25,0.38,0.37,0.71,0.37h0.19c0.05,0,0.12-0.02,0.21-0.05L333.98,71.8z"/>
<path class="st3" d="M347.42,65.02c0,1.16-0.14,2.16-0.41,2.99c-0.27,0.83-0.7,1.58-1.28,2.25c-0.51,0.58-1.12,1.04-1.83,1.38
	c-0.71,0.34-1.59,0.5-2.65,0.5c-0.92,0-1.75-0.17-2.5-0.5c-0.75-0.33-1.39-0.81-1.92-1.42s-0.94-1.34-1.23-2.21
	c-0.29-0.86-0.44-1.83-0.44-2.88c0-1.06,0.15-2.02,0.44-2.9c0.29-0.87,0.7-1.62,1.23-2.25c0.53-0.63,1.17-1.11,1.92-1.44
	c0.75-0.33,1.58-0.5,2.5-0.5c1.92,0,3.46,0.68,4.6,2.04c0.55,0.64,0.94,1.34,1.19,2.12C347.3,62.97,347.42,63.91,347.42,65.02z
	 M343.56,65c0-1.8-0.24-3.01-0.71-3.63c-0.37-0.48-0.88-0.71-1.53-0.71c-0.42,0-0.8,0.12-1.12,0.37c-0.33,0.25-0.56,0.58-0.7,1.01
	c-0.12,0.35-0.22,0.78-0.28,1.27c-0.06,0.49-0.09,1.08-0.09,1.75c0,1.57,0.15,2.71,0.45,3.41c0.16,0.37,0.41,0.65,0.75,0.83
	s0.69,0.28,1.05,0.28c0.78,0,1.34-0.36,1.68-1.09C343.39,67.76,343.56,66.6,343.56,65z"/>
<path class="st3" d="M363.88,59.78c-0.39,0.35-0.78,0.61-1.16,0.77c-0.39,0.16-0.83,0.24-1.32,0.24c-0.18,0-0.35-0.01-0.52-0.03
	c-0.17-0.02-0.3-0.03-0.41-0.05c0.26,0.32,0.46,0.65,0.6,1.01c0.13,0.35,0.2,0.76,0.2,1.22c0,0.58-0.12,1.12-0.37,1.61
	c-0.25,0.49-0.6,0.92-1.04,1.27c-0.45,0.35-0.98,0.63-1.59,0.83c-0.61,0.2-1.27,0.3-2,0.3h-0.24c-0.05,0-0.15-0.01-0.29-0.03
	c-0.46,0.21-0.81,0.4-1.05,0.57c-0.24,0.17-0.36,0.35-0.36,0.54c0,0.21,0.19,0.32,0.58,0.32l1.91,0.03
	c1.02,0.02,1.84,0.11,2.46,0.29c0.62,0.18,1.16,0.49,1.64,0.93c0.78,0.72,1.16,1.69,1.16,2.88c0,1.09-0.36,2.03-1.08,2.8
	c-0.6,0.63-1.38,1.08-2.33,1.35c-0.95,0.26-1.96,0.4-3.02,0.4c-0.97,0-1.91-0.1-2.83-0.3c-0.92-0.2-1.68-0.59-2.3-1.15
	c-0.74-0.69-1.11-1.49-1.11-2.41c0-0.37,0.04-0.66,0.11-0.86c0.07-0.2,0.14-0.38,0.21-0.52h3.28c-0.07,0.16-0.11,0.3-0.13,0.41
	c-0.02,0.11-0.03,0.27-0.03,0.46c0,0.55,0.22,0.96,0.65,1.24c0.43,0.28,1.06,0.42,1.89,0.42c0.46,0,0.87-0.03,1.24-0.09
	c0.37-0.06,0.7-0.18,0.98-0.36c0.26-0.16,0.48-0.36,0.63-0.6c0.16-0.24,0.24-0.5,0.24-0.78c0-0.62-0.24-1.04-0.71-1.26
	c-0.48-0.22-1.07-0.34-1.77-0.36l-1.51-0.03c-1.55-0.02-2.64-0.16-3.25-0.42c-0.32-0.12-0.57-0.33-0.75-0.63
	c-0.19-0.3-0.28-0.68-0.28-1.14c0-0.21,0.03-0.42,0.08-0.63c0.05-0.21,0.16-0.41,0.33-0.61s0.41-0.38,0.74-0.56
	c0.33-0.18,0.77-0.33,1.34-0.48c-1.94-0.49-2.91-1.75-2.91-3.76c0-0.69,0.14-1.31,0.41-1.88c0.27-0.56,0.66-1.04,1.15-1.44
	c0.49-0.4,1.09-0.71,1.8-0.93c0.71-0.22,1.49-0.33,2.36-0.33c0.39,0,0.77,0.03,1.14,0.08c0.37,0.05,0.8,0.14,1.3,0.26
	c0.37,0.09,0.68,0.16,0.94,0.21c0.26,0.05,0.5,0.08,0.73,0.08c0.49,0,0.98-0.1,1.47-0.3c0.48-0.2,0.93-0.49,1.34-0.86L363.88,59.78z
	 M357.61,62.67c0-0.64-0.19-1.13-0.57-1.48c-0.38-0.35-0.9-0.53-1.57-0.53c-0.67,0-1.19,0.18-1.56,0.53
	c-0.37,0.35-0.56,0.85-0.56,1.48c0,0.69,0.19,1.18,0.58,1.48c0.39,0.3,0.89,0.45,1.51,0.45C356.89,64.6,357.61,63.95,357.61,62.67z"
	/>
<path class="st3" d="M369.33,54.57c0,0.62-0.21,1.14-0.63,1.56c-0.42,0.42-0.94,0.63-1.56,0.63c-0.6,0-1.11-0.21-1.53-0.63
	c-0.42-0.42-0.64-0.94-0.64-1.56s0.22-1.14,0.65-1.56c0.43-0.42,0.96-0.63,1.57-0.63c0.6,0,1.11,0.21,1.52,0.63
	C369.13,53.43,369.33,53.95,369.33,54.57z M365.36,71.85V58.54l3.55-0.56v13.87H365.36z"/>
<path class="st3" d="M382.54,70.31c-0.27,0.26-0.48,0.46-0.64,0.6c-0.16,0.13-0.36,0.27-0.61,0.41c-0.47,0.28-0.98,0.49-1.52,0.64
	c-0.54,0.14-1.13,0.21-1.79,0.21c-1.87,0-3.32-0.61-4.35-1.84c-1.03-1.23-1.55-2.94-1.55-5.15c0-1.57,0.27-2.87,0.79-3.9
	c0.53-1.03,1.19-1.82,1.98-2.37c0.46-0.3,0.99-0.54,1.6-0.73c0.61-0.19,1.2-0.28,1.76-0.28c0.46,0,0.92,0.05,1.38,0.16
	c0.46,0.11,0.87,0.26,1.25,0.45c0.25,0.14,0.45,0.27,0.62,0.4c0.17,0.12,0.4,0.31,0.7,0.56l-1.72,2.33
	c-0.35-0.34-0.71-0.6-1.09-0.78c-0.37-0.19-0.72-0.28-1.06-0.28c-0.79,0-1.38,0.36-1.75,1.07S376,63.68,376,65.29
	c0,0.9,0.06,1.62,0.17,2.16c0.11,0.54,0.28,0.96,0.52,1.26c0.4,0.51,0.93,0.77,1.59,0.77c0.78,0,1.59-0.37,2.43-1.11l0.21-0.19
	L382.54,70.31z"/>
<path class="st3" d="M393.97,72.54c-0.4-0.18-0.78-0.41-1.12-0.69c-0.34-0.28-0.61-0.6-0.78-0.95c-0.14,0.14-0.28,0.27-0.41,0.4
	c-0.13,0.12-0.27,0.23-0.41,0.32c-0.69,0.49-1.6,0.74-2.73,0.74c-1.52,0-2.67-0.37-3.47-1.1c-0.79-0.73-1.19-1.78-1.19-3.14
	c0-1.61,0.54-2.78,1.63-3.53c1.09-0.75,2.71-1.12,4.88-1.12h0.4c0.12,0,0.26,0.01,0.4,0.03v-0.56c0-0.76-0.1-1.28-0.3-1.57
	c-0.2-0.29-0.63-0.44-1.28-0.44c-0.56,0-1.17,0.13-1.83,0.4c-0.65,0.26-1.35,0.64-2.09,1.14l-1.51-2.54
	c0.35-0.23,0.69-0.42,1.01-0.58c0.32-0.16,0.71-0.34,1.19-0.53c0.67-0.28,1.3-0.48,1.89-0.61c0.59-0.12,1.2-0.18,1.81-0.18
	c1.15,0,2.1,0.2,2.85,0.61c0.75,0.41,1.26,0.99,1.52,1.75c0.05,0.14,0.09,0.28,0.12,0.41c0.03,0.13,0.05,0.29,0.08,0.46
	c0.03,0.18,0.04,0.39,0.04,0.63v0.93l-0.08,4.55c0,0.37,0.01,0.69,0.03,0.97c0.02,0.27,0.07,0.53,0.16,0.75
	c0.09,0.23,0.22,0.45,0.38,0.65c0.17,0.2,0.4,0.42,0.7,0.65L393.97,72.54z M390.95,65.92c-1.24,0-2.1,0.14-2.58,0.42
	c-0.48,0.28-0.73,0.83-0.73,1.64c0,0.53,0.15,0.96,0.44,1.28c0.29,0.33,0.67,0.49,1.12,0.49c0.34,0,0.66-0.08,0.98-0.24
	c0.32-0.16,0.61-0.39,0.87-0.69l0.05-2.91H390.95z"/>
<path class="st3" d="M403.97,71.8c-0.64,0.25-1.34,0.37-2.12,0.37c-0.76,0-1.42-0.17-1.98-0.5c-0.56-0.34-0.95-0.78-1.17-1.35
	c-0.07-0.18-0.12-0.34-0.16-0.5c-0.04-0.16-0.07-0.34-0.09-0.56c-0.03-0.21-0.04-0.48-0.05-0.79c-0.01-0.32-0.01-0.71-0.01-1.19
	V57.16c0-0.9-0.01-1.65-0.04-2.25c-0.03-0.6-0.08-1.21-0.15-1.83l3.63-0.82c0.07,0.37,0.12,0.81,0.15,1.32
	c0.03,0.51,0.04,1.24,0.04,2.2v10.56c0,0.58,0,1.05,0.01,1.4c0.01,0.35,0.02,0.64,0.03,0.85c0.01,0.21,0.03,0.37,0.07,0.48
	c0.04,0.11,0.08,0.2,0.13,0.29c0.14,0.25,0.38,0.37,0.71,0.37h0.19c0.05,0,0.12-0.02,0.21-0.05L403.97,71.8z"/>
<path class="st3" d="M424.06,66.05c0,0.93-0.18,1.78-0.54,2.54c-0.36,0.76-0.87,1.41-1.53,1.96c-0.66,0.55-1.46,0.97-2.39,1.26
	c-0.93,0.29-1.98,0.44-3.12,0.44c-1.06,0-2.14-0.15-3.23-0.44c-1.09-0.29-2.11-0.7-3.04-1.23l1.37-2.88
	c0.86,0.46,1.69,0.82,2.47,1.08c0.78,0.26,1.64,0.4,2.58,0.4c2.15,0,3.23-0.84,3.23-2.51c0-1.15-0.8-1.94-2.41-2.38l-2.04-0.56
	c-0.92-0.25-1.67-0.56-2.25-0.93c-0.58-0.37-1.04-0.84-1.38-1.4c-0.51-0.83-0.77-1.76-0.77-2.8c0-0.85,0.16-1.62,0.48-2.32
	c0.32-0.7,0.77-1.3,1.35-1.8c0.58-0.5,1.28-0.89,2.09-1.16c0.81-0.27,1.7-0.41,2.67-0.41c1.13,0,2.23,0.16,3.31,0.49
	c1.08,0.33,2.02,0.78,2.83,1.36l-1.75,2.65c-0.85-0.51-1.6-0.87-2.26-1.09c-0.66-0.21-1.34-0.32-2.03-0.32
	c-0.76,0-1.37,0.2-1.85,0.6c-0.48,0.4-0.71,0.9-0.71,1.52c0,0.48,0.15,0.85,0.44,1.12c0.29,0.27,0.82,0.52,1.6,0.73l2.22,0.61
	c1.52,0.41,2.67,1.08,3.47,2.01C423.66,63.52,424.06,64.68,424.06,66.05z"/>
<path class="st3" d="M435.26,72.22c-0.48-0.34-0.83-0.78-1.06-1.32c-0.44,0.42-0.97,0.75-1.57,0.97c-0.61,0.22-1.27,0.33-2,0.33
	c-0.95,0-1.8-0.2-2.54-0.61c-0.74-0.41-1.23-0.93-1.46-1.59c-0.11-0.3-0.18-0.65-0.22-1.06c-0.04-0.41-0.07-0.95-0.07-1.64v-8.68
	l3.49-0.66v8.71c0,0.62,0.03,1.09,0.08,1.43c0.05,0.34,0.12,0.6,0.21,0.79c0.09,0.19,0.25,0.35,0.49,0.46
	c0.24,0.11,0.49,0.17,0.75,0.17c0.44,0,0.88-0.13,1.32-0.4c0.44-0.26,0.73-0.56,0.87-0.9V58.7l3.39-0.71v10.35
	c0,0.46,0.07,0.9,0.21,1.34c0.14,0.43,0.34,0.81,0.61,1.12L435.26,72.22z"/>
<path class="st3" d="M447.03,61.4c-0.34-0.18-0.68-0.26-1.03-0.26c-0.79,0-1.52,0.38-2.17,1.14v9.58h-3.55V62.8
	c0-0.92-0.05-1.71-0.15-2.38c-0.1-0.67-0.22-1.2-0.36-1.59l3.18-0.85c0.32,0.56,0.5,1.21,0.55,1.93c0.39-0.51,0.85-0.96,1.38-1.35
	c0.53-0.39,1.13-0.58,1.8-0.58c0.26,0,0.48,0.02,0.65,0.05c0.17,0.04,0.39,0.11,0.67,0.24L447.03,61.4z"/>
<path class="st3" d="M457.08,71.85h-2.94l-4.92-13.34l3.62-0.45l1.96,6.11c0.07,0.23,0.15,0.49,0.23,0.77
	c0.08,0.28,0.16,0.57,0.24,0.87c0.08,0.3,0.15,0.59,0.23,0.87l0.19,0.74c0.05-0.41,0.15-0.91,0.29-1.52
	c0.14-0.61,0.32-1.25,0.53-1.92l1.83-5.69h3.71L457.08,71.85z"/>
<path class="st3" d="M466.55,66.19v0.11c0,1.06,0.25,1.87,0.74,2.43c0.49,0.56,1.2,0.85,2.12,0.85c1.2,0,2.35-0.45,3.44-1.35
	l1.38,2.12c-1.53,1.25-3.24,1.88-5.11,1.88c-0.97,0-1.85-0.17-2.65-0.5c-0.79-0.34-1.47-0.81-2.02-1.42
	c-0.56-0.61-0.98-1.34-1.28-2.21c-0.3-0.86-0.45-1.83-0.45-2.88c0-1.22,0.13-2.25,0.4-3.1c0.26-0.85,0.7-1.6,1.3-2.28
	c0.56-0.62,1.19-1.08,1.88-1.38c0.69-0.3,1.48-0.45,2.38-0.45c0.79,0,1.53,0.12,2.22,0.37c0.69,0.25,1.25,0.6,1.69,1.06
	c0.62,0.63,1.07,1.42,1.36,2.37s0.44,2.13,0.44,3.56v0.82H466.55z M470.71,63.43c0-0.51-0.03-0.92-0.09-1.22
	c-0.06-0.3-0.17-0.57-0.33-0.82c-0.35-0.53-0.87-0.79-1.56-0.79c-0.67,0-1.19,0.25-1.56,0.75s-0.56,1.23-0.56,2.18v0.05h4.1V63.43z"
	/>
<path class="st3" d="M483.67,72.06c-0.23,0.65-0.45,1.22-0.66,1.71c-0.21,0.49-0.42,0.9-0.62,1.24c-0.2,0.34-0.41,0.64-0.62,0.89
	c-0.21,0.25-0.44,0.46-0.69,0.64c-0.46,0.34-0.97,0.6-1.52,0.81c-0.55,0.2-1.14,0.35-1.76,0.44l-1.22-2.33
	c0.39-0.11,0.78-0.23,1.19-0.38c0.4-0.15,0.74-0.32,1.01-0.52c0.37-0.26,0.71-0.63,1.01-1.11c0.09-0.14,0.16-0.26,0.23-0.37
	c0.06-0.11,0.12-0.22,0.17-0.33c0.05-0.11,0.11-0.24,0.16-0.38c0.05-0.14,0.12-0.31,0.21-0.5h-0.9l-4.47-13.34l3.63-0.42l2.35,7.91
	l0.71,2.8c0-0.02,0.01-0.11,0.04-0.28c0.03-0.17,0.06-0.36,0.11-0.58c0.04-0.22,0.09-0.45,0.15-0.7c0.05-0.25,0.1-0.45,0.13-0.61
	c0.05-0.23,0.13-0.52,0.23-0.87c0.1-0.35,0.2-0.69,0.3-1.01l2.04-6.46h3.73L483.67,72.06z"/>
<rect x="270.68" y="22.9" class="st4" width="1.3" height="51.77"/>
</svg>
