<svg width="21" height="22" viewBox="0 0 21 22" fill="none" xmlns="http://www.w3.org/2000/svg">
<path d="M0 1.6C0 1.22667 0.151667 0.888338 0.455 0.585005C0.758333 0.281672 1.12 0.130005 1.54 0.130005H19.46C19.88 0.130005 20.2417 0.281672 20.545 0.585005C20.8483 0.888338 21 1.22667 21 1.6V19.66C21 20.0333 20.8483 20.3717 20.545 20.675C20.2417 20.9783 19.88 21.13 19.46 21.13H1.54C1.12 21.13 0.758333 20.9783 0.455 20.675C0.151667 20.3717 0 20.0333 0 19.66V1.6ZM6.51 17.7V8.25H3.36V17.7H6.51ZM4.9 6.92C5.46 6.92 5.90333 6.76834 6.23 6.465C6.55667 6.16167 6.70833 5.77667 6.685 5.31001C6.66167 4.84334 6.49833 4.44667 6.195 4.12C5.89167 3.79334 5.47167 3.63 4.935 3.63C4.39833 3.63 3.96667 3.79334 3.64 4.12C3.31333 4.44667 3.15 4.84334 3.15 5.31001C3.15 5.77667 3.31333 6.16167 3.64 6.465C3.96667 6.76834 4.38667 6.92 4.9 6.92ZM11.34 17.7V12.38C11.34 12.0533 11.3867 11.7967 11.48 11.61C11.5733 11.33 11.76 11.0733 12.04 10.84C12.32 10.6067 12.67 10.49 13.09 10.49C13.65 10.49 14.0583 10.6767 14.315 11.05C14.5717 11.4233 14.7 11.96 14.7 12.66V17.7H17.85V12.24C17.85 10.84 17.5117 9.77834 16.835 9.05501C16.1583 8.33167 15.2833 7.97001 14.21 7.97001C13.4633 7.97001 12.8333 8.15667 12.32 8.53C11.9467 8.76334 11.62 9.11334 11.34 9.58V8.25H8.19C8.23667 8.62334 8.23667 10.3033 8.19 13.29V17.7H11.34Z" fill="white"/>
</svg>
