<svg width="21" height="22" viewBox="0 0 21 22" fill="none" xmlns="http://www.w3.org/2000/svg">
<path d="M10.5 0.880005C8.54 0.880005 7.08167 0.903337 6.125 0.950005C5.16833 0.996672 4.34 1.16001 3.64 1.44C2.94 1.72001 2.32167 2.12834 1.785 2.665C1.24833 3.20167 0.84 3.82001 0.56 4.52C0.28 5.22001 0.116667 6.04834 0.07 7.005C0.0233333 7.96167 0 9.42 0 11.38C0 13.34 0.0233333 14.7983 0.07 15.755C0.116667 16.7117 0.28 17.54 0.56 18.24C0.84 18.94 1.24833 19.5583 1.785 20.095C2.32167 20.6317 2.94 21.04 3.64 21.32C4.34 21.6 5.16833 21.7633 6.125 21.81C7.08167 21.8567 8.54 21.88 10.5 21.88C12.46 21.88 13.9183 21.8567 14.875 21.81C15.8317 21.7633 16.66 21.6 17.36 21.32C18.06 21.04 18.6783 20.6317 19.215 20.095C19.7517 19.5583 20.16 18.94 20.44 18.24C20.72 17.54 20.8833 16.7117 20.93 15.755C20.9767 14.7983 21 13.34 21 11.38C21 9.42 20.9767 7.96167 20.93 7.005C20.8833 6.04834 20.72 5.22001 20.44 4.52C20.16 3.82001 19.7517 3.20167 19.215 2.665C18.6783 2.12834 18.06 1.72001 17.36 1.44C16.66 1.16001 15.8317 0.996672 14.875 0.950005C13.9183 0.903337 12.46 0.880005 10.5 0.880005ZM9.59 2.77H10.5C12.46 2.77 13.8833 2.79334 14.77 2.84C15.5167 2.88667 16.135 3.00334 16.625 3.19C17.115 3.37667 17.535 3.645 17.885 3.995C18.235 4.34501 18.5033 4.76501 18.69 5.255C18.8767 5.745 18.9933 6.36334 19.04 7.11C19.0867 7.99667 19.11 9.42 19.11 11.38C19.11 13.34 19.0867 14.7633 19.04 15.65C18.9933 16.3967 18.8767 17.015 18.69 17.505C18.5033 17.995 18.235 18.415 17.885 18.765C17.535 19.115 17.115 19.3833 16.625 19.57C16.135 19.7567 15.5167 19.8733 14.77 19.92C13.8367 19.9667 12.4133 19.99 10.5 19.99C8.58667 19.99 7.16333 19.9667 6.23 19.92C5.48333 19.8733 4.865 19.7567 4.375 19.57C3.885 19.3833 3.465 19.115 3.115 18.765C2.765 18.415 2.49667 17.995 2.31 17.505C2.12333 17.015 2.00667 16.3967 1.96 15.65C1.91333 14.7167 1.89 13.2817 1.89 11.345C1.89 9.40834 1.91333 7.99667 1.96 7.11C2.00667 6.36334 2.12333 5.745 2.31 5.255C2.49667 4.76501 2.765 4.34501 3.115 3.995C3.465 3.645 3.885 3.37667 4.375 3.19C4.865 3.00334 5.50667 2.88667 6.3 2.84C7.09333 2.79334 8.19 2.77 9.59 2.77ZM16.1 4.52C15.7733 4.52 15.4817 4.63667 15.225 4.87C14.9683 5.10334 14.84 5.395 14.84 5.745C14.84 6.09501 14.9683 6.39834 15.225 6.655C15.4817 6.91167 15.785 7.04 16.135 7.04C16.485 7.04 16.7767 6.91167 17.01 6.655C17.2433 6.39834 17.36 6.09501 17.36 5.745C17.36 5.395 17.2433 5.10334 17.01 4.87C16.7767 4.63667 16.4733 4.52 16.1 4.52ZM10.5 5.99C9.52 5.99 8.61 6.22334 7.77 6.69C6.93 7.15667 6.265 7.81001 5.775 8.65C5.285 9.49 5.04 10.4 5.04 11.38C5.04 12.36 5.285 13.27 5.775 14.11C6.265 14.95 6.93 15.6033 7.77 16.07C8.61 16.5367 9.52 16.77 10.5 16.77C11.48 16.77 12.3783 16.525 13.195 16.035C14.0117 15.545 14.6533 14.8917 15.12 14.075C15.5867 13.2583 15.82 12.36 15.82 11.38C15.82 10.4 15.5867 9.50167 15.12 8.68501C14.6533 7.86834 14.0117 7.215 13.195 6.72501C12.3783 6.235 11.48 5.99 10.5 5.99ZM10.5 7.88C11.1067 7.88 11.69 8.03167 12.25 8.335C12.81 8.63834 13.2417 9.07 13.545 9.63C13.8483 10.19 14 10.7733 14 11.38C14 11.9867 13.8483 12.57 13.545 13.13C13.2417 13.69 12.81 14.1217 12.25 14.425C11.69 14.7283 11.1067 14.88 10.5 14.88C9.52 14.88 8.69167 14.5417 8.015 13.865C7.33833 13.1883 7 12.36 7 11.38C7 10.4 7.33833 9.57167 8.015 8.89501C8.69167 8.21834 9.52 7.88 10.5 7.88Z" fill="white"/>
</svg>
