<svg xmlns="http://www.w3.org/2000/svg" width="30" height="27" viewBox="0 0 29 26"><title>svg yt</title><g fill="#ffffff" class="nc-icon-wrapper"><path d="M27.49 6.21c-0.32-1.19-1.24-2.11-2.42-2.44-2.13-0.58-10.67-0.58-10.67-0.57s-8.54 0-10.67 0.57c-1.18 0.32-2.1 1.25-2.42 2.44-0.57 2.15-0.57 6.61-0.56 6.61s0 4.47 0.57 6.62c0.32 1.19 1.24 2.08 2.41 2.39 2.13 0.58 10.67 0.58 10.67 0.57s8.54 0 10.67-0.57c1.18-0.32 2.1-1.21 2.42-2.4 0.57-2.15 0.57-6.62 0.57-6.61s0-4.47-0.57-6.62z m-15.88 10.67v-8.12l7.14 4.06-7.14 4.06z" fill="#ffffff"></path></g></svg>